<?xml version="1.0" encoding="utf-8"?>
<!-- Generator: Adobe Illustrator 16.0.4, SVG Export Plug-In . SVG Version: 6.00 Build 0)  -->
<!DOCTYPE svg PUBLIC "-//W3C//DTD SVG 1.1//EN" "http://www.w3.org/Graphics/SVG/1.1/DTD/svg11.dtd">
<svg version="1.1" id="Layer_1" xmlns="http://www.w3.org/2000/svg" xmlns:xlink="http://www.w3.org/1999/xlink" x="0px" y="0px"
	 width="700px" height="700px" viewBox="0 0 700 700" enable-background="new 0 0 700 700" xml:space="preserve">
<g>
	<g opacity="0.4">
		<path fill="#66CCFF" d="M550,550c0-110.457-89.543-200-200-200s-200,89.543-200,200c110.457,0,200-89.543,200-200
			s-89.543-200-200-200c0,110.457,89.543,200,200,200s200-89.543,200-200c-110.457,0-200,89.543-200,200S439.543,550,550,550z"/>
	</g>
	<g opacity="0.4">
		<path fill="#66CCFF" d="M594.949,491.422C566.361,384.729,456.693,321.412,350,350S179.99,488.256,208.579,594.949
			C315.271,566.361,378.588,456.693,350,350S211.744,179.99,105.052,208.578C133.64,315.271,243.307,378.588,350,350
			s170.01-138.256,141.422-244.949C384.729,133.64,321.412,243.307,350,350S488.256,520.01,594.949,491.422z"/>
	</g>
	<g opacity="0.4">
		<path fill="#66CCFF" d="M623.205,423.205C567.977,327.547,445.658,294.771,350,350s-128.434,177.547-73.205,273.205
			C372.453,567.977,405.229,445.658,350,350S172.453,221.566,76.795,276.795C132.023,372.453,254.342,405.229,350,350
			s128.434-177.547,73.205-273.205C327.547,132.023,294.771,254.342,350,350S527.547,478.434,623.205,423.205z"/>
	</g>
	<g opacity="0.4">
		<path fill="#66CCFF" d="M632.842,350.091C554.762,271.961,428.129,271.92,350,350c-78.13,78.08-78.171,204.714-0.09,282.843
			C428.039,554.763,428.08,428.13,350,350c-78.079-78.13-204.713-78.17-282.842-0.091C145.236,428.039,271.87,428.08,350,350
			c78.129-78.08,78.17-204.713,0.09-282.843C271.961,145.237,271.921,271.87,350,350C428.08,428.13,554.713,428.171,632.842,350.091
			z"/>
	</g>
	<g opacity="0.4">
		<path fill="#66CCFF" d="M623.229,276.883C527.588,221.623,405.26,254.359,350,350s-22.523,217.971,73.119,273.229
			C478.377,527.588,445.641,405.26,350,350c-95.64-55.26-217.969-22.523-273.228,73.117C172.412,478.377,294.74,445.641,350,350
			s22.523-217.969-73.117-273.229C221.623,172.412,254.36,294.74,350,350C445.641,405.26,567.969,372.523,623.229,276.883z"/>
	</g>
	<g opacity="0.4">
		<path fill="#66CCFF" d="M594.994,208.656C488.311,180.035,378.623,243.315,350,350c-28.623,106.684,34.66,216.373,141.344,244.994
			C519.965,488.311,456.686,378.623,350,350c-106.684-28.623-216.371,34.659-244.994,141.342
			C211.689,519.965,321.377,456.684,350,350c28.623-106.685-34.658-216.371-141.342-244.994
			C180.033,211.689,243.316,321.377,350,350C456.686,378.623,566.371,315.342,594.994,208.656z"/>
	</g>
</g>
</svg>
