<?xml version="1.0" encoding="utf-8"?>
<!-- Generator: Adobe Illustrator 16.0.4, SVG Export Plug-In . SVG Version: 6.00 Build 0)  -->
<!DOCTYPE svg PUBLIC "-//W3C//DTD SVG 1.1//EN" "http://www.w3.org/Graphics/SVG/1.1/DTD/svg11.dtd">
<svg version="1.1" id="Layer_1" xmlns="http://www.w3.org/2000/svg" xmlns:xlink="http://www.w3.org/1999/xlink" x="0px" y="0px"
	 width="1000px" height="1000px" viewBox="0 0 1000 1000" enable-background="new 0 0 1000 1000" xml:space="preserve">
<g>
	<g>
		<path fill="#FFFFFF" d="M1000,564.381 M0,564.381 M500,64.38"/>
	</g>
</g>
<path fill="#3FA9F5" stroke="#000000" stroke-miterlimit="10" d="M501,962"/>
<path fill="#0FB9CB" d="M901,562"/>
<path fill="#0FB9CB" d="M101,562"/>
<g opacity="0.4">
	<path fill="#0FB9CB" d="M695,762c0-110.457-89.543-200-200-200s-200,89.543-200,200c110.457,0,200-89.543,200-200
		s-89.543-200-200-200c0,110.457,89.543,200,200,200s200-89.543,200-200c-110.457,0-200,89.543-200,200S584.543,762,695,762z"/>
</g>
<g opacity="0.4">
	<path fill="#0FB9CB" d="M739.949,703.422C711.361,596.729,601.693,533.412,495,562S324.99,700.256,353.579,806.949
		C460.271,778.361,523.589,668.693,495,562c-28.588-106.693-138.256-170.01-244.948-141.422C278.64,527.271,388.307,590.588,495,562
		s170.01-138.256,141.422-244.949C529.729,345.64,466.412,455.307,495,562C523.589,668.693,633.256,732.01,739.949,703.422z"/>
</g>
<g opacity="0.4">
	<path fill="#0FB9CB" d="M768.205,635.205C712.977,539.547,590.658,506.771,495,562s-128.434,177.547-73.205,273.205
		C517.453,779.977,550.229,657.658,495,562s-177.547-128.434-273.205-73.205C277.023,584.453,399.342,617.229,495,562
		s128.434-177.547,73.205-273.205C472.547,344.023,439.771,466.342,495,562S672.547,690.434,768.205,635.205z"/>
</g>
<path fill="#0FB9CB" d="M495.091,279.157C416.961,357.237,416.921,483.87,495,562c78.08,78.13,204.713,78.171,282.843,0.091
	C699.763,483.961,573.13,483.92,495,562s-78.171,204.714-0.09,282.843C573.039,766.763,573.08,640.13,495,562
	c-78.079-78.13-204.713-78.17-282.842-0.091C290.236,640.039,416.87,640.08,495,562S573.171,357.287,495.091,279.157"/>
<g opacity="0.4">
	<path fill="#0FB9CB" d="M768.229,488.883C672.588,433.623,550.26,466.359,495,562c-55.259,95.641-22.523,217.971,73.119,273.229
		C623.377,739.588,590.642,617.26,495,562c-95.64-55.26-217.969-22.523-273.228,73.117C317.412,690.377,439.741,657.641,495,562
		c55.26-95.641,22.524-217.969-73.117-273.229C366.623,384.412,399.36,506.74,495,562
		C590.642,617.26,712.97,584.523,768.229,488.883z"/>
</g>
<g opacity="0.4">
	<path fill="#0FB9CB" d="M739.994,420.656C633.311,392.035,523.623,455.315,495,562c-28.623,106.684,34.66,216.373,141.344,244.994
		C664.965,700.311,601.686,590.623,495,562c-106.684-28.623-216.371,34.659-244.994,141.342
		C356.689,731.965,466.377,668.684,495,562c28.623-106.685-34.658-216.371-141.342-244.994C325.033,423.689,388.316,533.377,495,562
		C601.686,590.623,711.371,527.342,739.994,420.656z"/>
</g>
<g>
	<path fill="#FFFFFF" d="M358.784,611.012c-2.079-1.417-3.875-3.354-5.386-5.811c-1.512-2.457-2.717-5.339-3.614-8.646
		c-0.898-3.307-1.347-6.897-1.347-10.772c0-3.779,0.449-7.347,1.347-10.701c0.897-3.354,2.103-6.236,3.614-8.646
		c1.512-2.41,3.307-4.323,5.386-5.74c2.079-1.418,4.299-2.127,6.662-2.127c3.969,0,7.465,1.938,10.489,5.812
		c0.945,0.945,0.85,1.984-0.284,3.118c-0.473,0.378-1.016,0.52-1.63,0.426c-0.614-0.095-1.11-0.378-1.488-0.851
		c-0.756-0.945-1.725-1.866-2.906-2.764c-1.181-0.898-2.575-1.347-4.181-1.347c-1.701,0-3.307,0.614-4.819,1.843
		c-1.512,1.229-2.834,2.882-3.969,4.961c-1.134,2.078-2.031,4.488-2.693,7.229s-0.992,5.669-0.992,8.787
		c0,3.119,0.331,6.071,0.992,8.859c0.662,2.787,1.559,5.221,2.693,7.299c1.134,2.079,2.457,3.733,3.969,4.961
		c1.512,1.229,3.118,1.843,4.819,1.843c1.512,0,2.953-0.473,4.323-1.417c1.371-0.945,2.599-2.268,3.686-3.969
		c1.086-1.701,2.008-3.709,2.764-6.024c0.756-2.314,1.276-4.843,1.559-7.583c0.095-0.566,0.378-1.039,0.851-1.417
		s0.992-0.567,1.559-0.567c1.512,0.095,2.173,0.945,1.984,2.552c-0.284,3.308-0.921,6.354-1.914,9.143
		c-0.992,2.787-2.244,5.196-3.756,7.229c-1.512,2.031-3.213,3.614-5.103,4.748c-1.89,1.134-3.875,1.701-5.953,1.701
		C363.083,613.139,360.863,612.43,358.784,611.012z"/>
	<path fill="#FFFFFF" d="M439.714,600.665c0,1.04-0.189,2.292-0.567,3.756c-0.378,1.465-1.039,2.835-1.984,4.11
		c-0.945,1.276-2.22,2.363-3.827,3.261s-3.638,1.347-6.095,1.347c-1.89,0-3.567-0.331-5.032-0.992
		c-1.465-0.662-2.764-1.56-3.898-2.693c-1.323-1.417-2.173-2.93-2.551-4.536s-0.567-3.023-0.567-4.252v-14.883
		c0-3.118-0.331-6.047-0.992-8.787s-1.559-5.15-2.693-7.229c-1.134-2.079-2.457-3.732-3.969-4.961
		c-1.512-1.229-3.118-1.843-4.819-1.843c-1.701,0-3.307,0.614-4.819,1.843c-1.512,1.229-2.858,2.882-4.04,4.961
		c-1.181,2.078-2.103,4.488-2.764,7.229s-0.992,5.669-0.992,8.787v24.805c0,0.661-0.212,1.182-0.638,1.56s-0.921,0.566-1.488,0.566
		c-1.512,0-2.268-0.709-2.268-2.126v-45.215v-4.677v-0.992c0-4.253,0.071-8.812,0.213-13.679c0.142-4.866,0.449-9.425,0.921-13.678
		c0.094-1.039,0.331-2.48,0.708-4.322c0.378-1.843,0.945-3.686,1.701-5.528c0.756-1.843,1.772-3.425,3.047-4.748
		c1.276-1.323,2.858-1.984,4.749-1.984c0.567,0,1.229,0.142,1.984,0.425c0.756,0.284,1.512,0.898,2.268,1.843
		c1.701,2.174,2.599,5.575,2.693,10.205c0.094,4.631-0.567,9.639-1.984,15.024c-0.662,2.457-1.536,4.701-2.622,6.732
		c-1.087,2.032-2.221,3.827-3.402,5.387c-1.181,1.559-2.315,2.882-3.402,3.969l-2.48,2.48v5.527c1.606-2.74,3.473-4.89,5.599-6.449
		c2.126-1.559,4.465-2.339,7.016-2.339c2.362,0,4.583,0.709,6.662,2.127c2.079,1.417,3.875,3.33,5.386,5.74
		c1.512,2.409,2.693,5.291,3.543,8.646s1.276,6.922,1.276,10.701v12.474c0.094,0.095,0.142,0.331,0.142,0.709l-0.071,0.85
		c-0.047,0.567-0.024,1.252,0.071,2.056c0.094,0.803,0.283,1.63,0.567,2.48s0.708,1.606,1.276,2.268
		c1.228,1.418,3.118,2.126,5.669,2.126c1.984,0,3.52-0.401,4.606-1.204c1.086-0.804,1.89-1.701,2.41-2.693
		c0.52-0.992,0.827-1.914,0.921-2.764c0.094-0.851,0.142-1.37,0.142-1.56c0-0.566,0.212-1.062,0.638-1.488
		c0.425-0.425,0.969-0.638,1.63-0.638C439.005,598.397,439.714,599.153,439.714,600.665z M390.318,544.041
		c-0.142,3.921-0.213,7.725-0.213,11.409c1.323-1.512,2.74-3.401,4.252-5.669c1.512-2.269,2.646-4.819,3.401-7.654
		c1.323-5.008,1.914-9.496,1.772-13.465s-0.732-6.614-1.772-7.938c-0.094-0.378-0.331-0.567-0.708-0.567
		c-2.74,0-4.677,4.253-5.812,12.757C390.767,536.41,390.46,540.119,390.318,544.041z"/>
	<path fill="#FFFFFF" d="M451.899,611.012c-2.079-1.417-3.874-3.354-5.386-5.811c-1.512-2.457-2.716-5.339-3.614-8.646
		c-0.897-3.307-1.346-6.897-1.346-10.772c0-3.779,0.449-7.347,1.346-10.701c0.898-3.354,2.103-6.236,3.614-8.646
		c1.512-2.41,3.308-4.323,5.386-5.74c2.079-1.418,4.299-2.127,6.662-2.127s4.583,0.709,6.662,2.127
		c2.079,1.417,3.874,3.33,5.386,5.74c1.512,2.409,2.693,5.291,3.543,8.646c0.851,3.354,1.276,6.922,1.276,10.701
		c0,3.875-0.425,7.466-1.276,10.772c-0.85,3.308-2.031,6.189-3.543,8.646c-1.512,2.456-3.307,4.394-5.386,5.811
		c-2.079,1.418-4.3,2.127-6.662,2.127S453.979,612.43,451.899,611.012z M453.742,564.806c-1.512,1.229-2.858,2.882-4.04,4.961
		c-1.181,2.078-2.103,4.488-2.764,7.229c-0.661,2.74-0.992,5.669-0.992,8.787c0,3.119,0.331,6.071,0.992,8.859
		c0.662,2.787,1.583,5.221,2.764,7.299c1.181,2.079,2.527,3.733,4.04,4.961c1.512,1.229,3.118,1.843,4.819,1.843
		c1.701,0,3.308-0.614,4.819-1.843c1.512-1.228,2.834-2.882,3.969-4.961c1.134-2.078,2.031-4.512,2.693-7.299
		c0.662-2.788,0.992-5.74,0.992-8.859c0-3.118-0.331-6.047-0.992-8.787s-1.559-5.15-2.693-7.229
		c-1.134-2.079-2.457-3.732-3.969-4.961s-3.118-1.843-4.819-1.843C456.86,562.963,455.254,563.577,453.742,564.806z
		 M474.152,609.453c-1.04-1.039-1.748-2.197-2.126-3.473s-0.662-2.48-0.851-3.614c-0.189-1.229-0.189-2.504,0-3.827
		c0.095-0.661,0.378-1.181,0.851-1.559c0.473-0.379,0.992-0.521,1.559-0.426c0.662,0.095,1.181,0.378,1.559,0.851
		s0.52,0.992,0.425,1.56l-0.071,0.85c-0.047,0.567-0.024,1.252,0.071,2.056c0.095,0.803,0.284,1.63,0.567,2.48
		c0.284,0.851,0.709,1.606,1.276,2.268c1.228,1.418,3.118,2.126,5.669,2.126c1.984,0,3.52-0.401,4.606-1.204
		c1.087-0.804,1.89-1.701,2.41-2.693s0.827-1.914,0.921-2.764c0.094-0.851,0.142-1.37,0.142-1.56c0-0.566,0.212-1.062,0.638-1.488
		c0.425-0.425,0.969-0.638,1.63-0.638c1.417,0,2.126,0.756,2.126,2.268c0,1.04-0.189,2.292-0.567,3.756
		c-0.378,1.465-1.063,2.835-2.055,4.11c-0.992,1.276-2.292,2.363-3.898,3.261s-3.591,1.347-5.953,1.347
		C479.397,613.139,476.42,611.91,474.152,609.453z M471.814,600.311c-0.425-0.425-0.638-0.968-0.638-1.63v-37.985
		c0-0.567,0.213-1.063,0.638-1.488c0.425-0.426,0.921-0.639,1.488-0.639c0.661,0,1.205,0.213,1.63,0.639
		c0.425,0.425,0.638,0.921,0.638,1.488v37.985c0,1.512-0.756,2.268-2.268,2.268C472.735,600.948,472.239,600.736,471.814,600.311z"
		/>
	<path fill="#FFFFFF" d="M562.311,600.665c0,1.04-0.189,2.292-0.568,3.756c-0.377,1.465-1.039,2.835-1.984,4.11
		c-0.943,1.276-2.221,2.363-3.826,3.261s-3.639,1.347-6.096,1.347c-3.779,0-6.756-1.229-8.928-3.686
		c-0.852-0.945-1.488-1.984-1.914-3.118s-0.709-2.221-0.852-3.26c-0.141-1.04-0.211-1.961-0.211-2.765v-1.63v-35.859l-8.363,0.708
		l-8.221,0.284v36.852c0,0.567-0.213,1.063-0.639,1.488c-0.425,0.426-0.921,0.638-1.488,0.638c-0.661,0-1.204-0.212-1.629-0.638
		c-0.426-0.425-0.639-0.921-0.639-1.488v-38.411c-5.103-0.945-9.26-2.386-12.473-4.323c-3.213-1.937-5.197-4.134-5.953-6.591
		s-0.189-4.63,1.701-6.52c0.377-0.378,0.898-0.732,1.559-1.063c0.662-0.333,1.441-0.521,2.339-0.566
		c0.897-0.048,1.89,0.142,2.977,0.566c1.087,0.426,2.292,1.205,3.614,2.339c1.512,1.229,2.906,2.646,4.182,4.252
		s2.338,3.071,3.189,4.395c0.566,0.85,1.039,1.606,1.417,2.268s0.708,1.229,0.992,1.701l0.283,0.283
		c0.095,0.095,0.188,0.236,0.284,0.425l8.221-0.283l10.631-0.992h0.141h0.143h0.283l0.141,0.142h0.285l0.141,0.142h0.143
		c0.094,0.095,0.188,0.142,0.283,0.142c0,0.095,0.047,0.143,0.141,0.143c0,0.094,0.049,0.142,0.143,0.142
		c0,0.094,0.047,0.142,0.143,0.142c0,0.095,0.047,0.188,0.141,0.283v0.142c0.094,0.096,0.143,0.19,0.143,0.284v0.142
		c0,0.095,0.047,0.189,0.141,0.283v0.142v0.142v38.128v0.142v0.142v0.143l-0.07,0.85c-0.047,0.567-0.023,1.252,0.07,2.056
		c0.096,0.803,0.283,1.63,0.566,2.48c0.285,0.851,0.709,1.606,1.277,2.268c1.229,1.418,3.117,2.126,5.668,2.126
		c1.891,0,3.379-0.378,4.465-1.134c1.088-0.756,1.891-1.63,2.41-2.622s0.852-1.938,0.992-2.835c0.143-0.897,0.213-1.44,0.213-1.63
		c0-0.566,0.236-1.062,0.709-1.488c0.473-0.425,0.992-0.638,1.559-0.638C561.602,598.397,562.311,599.153,562.311,600.665z
		 M506.182,553.75c1.89,1.322,4.63,2.456,8.221,3.401c-0.662-0.945-1.395-1.938-2.197-2.977c-0.803-1.04-1.606-2.009-2.41-2.905
		c-0.803-0.898-1.629-1.678-2.48-2.339c-0.85-0.661-1.652-1.087-2.408-1.275h-0.568c-0.377,0-0.708,0.142-0.992,0.425
		c-0.66,0.567-0.85,1.229-0.566,1.984C503.157,551.198,504.291,552.427,506.182,553.75z"/>
	<path fill="#FFFFFF" d="M563.723,544.253v-5.103c0-1.512,0.756-2.268,2.268-2.268s2.27,0.756,2.27,2.268v5.103
		c0,1.512-0.758,2.268-2.27,2.268S563.723,545.765,563.723,544.253z M566.842,609.453c-0.945-1.039-1.631-2.126-2.055-3.26
		c-0.426-1.134-0.709-2.221-0.852-3.261c-0.141-1.039-0.189-1.937-0.141-2.692c0.047-0.756,0.07-1.275,0.07-1.56v-37.985
		c0-0.567,0.213-1.063,0.637-1.488c0.426-0.426,0.922-0.639,1.488-0.639c0.662,0,1.205,0.213,1.631,0.639
		c0.426,0.425,0.639,0.921,0.639,1.488v38.27l-0.072,0.85c-0.047,0.567-0.023,1.252,0.072,2.056c0.094,0.803,0.283,1.63,0.566,2.48
		s0.709,1.606,1.275,2.268c1.229,1.418,3.117,2.126,5.67,2.126c1.984,0,3.52-0.401,4.605-1.204c1.088-0.804,1.891-1.701,2.41-2.693
		s0.826-1.914,0.922-2.764c0.094-0.851,0.141-1.37,0.141-1.56c0-0.566,0.213-1.062,0.639-1.488c0.426-0.425,0.969-0.638,1.629-0.638
		c0.662,0,1.205,0.213,1.631,0.638c0.426,0.426,0.59,0.969,0.496,1.63c0,1.04-0.189,2.292-0.566,3.756
		c-0.379,1.465-1.041,2.835-1.984,4.11c-0.945,1.276-2.221,2.363-3.828,3.261c-1.605,0.897-3.637,1.347-6.094,1.347
		C571.992,613.139,569.016,611.91,566.842,609.453z"/>
	<path fill="#FFFFFF" d="M613.047,559.277l15.449,17.718l3.969,4.535c3.496,3.969,5.787,8.032,6.875,12.189
		c1.086,4.158,0.826,7.891-0.779,11.197c-1.229,2.457-3,4.371-5.316,5.741c-2.314,1.37-5.125,2.055-8.434,2.055
		c-2.928,0-5.457-0.33-7.582-0.992c-2.127-0.661-3.898-1.559-5.316-2.693c-1.416-1.134-2.527-2.386-3.33-3.756
		s-1.299-2.764-1.488-4.181c-0.473-3.308,0.283-6.402,2.268-9.284s4.771-4.89,8.363-6.024c1.512-0.283,2.457,0.189,2.834,1.418
		c0.283,1.512-0.188,2.457-1.416,2.835c-2.93,0.944-5.01,2.456-6.238,4.535c-1.227,2.079-1.699,4.063-1.416,5.953
		s1.441,3.662,3.473,5.315s5.314,2.48,9.85,2.48c5.01,0,8.27-1.748,9.781-5.244c1.133-2.457,1.205-5.339,0.213-8.646
		s-2.906-6.614-5.742-9.922l-17.008-19.701c-0.662,1.512-1.488,3.354-2.48,5.527c-0.992,2.174-1.984,4.441-2.977,6.804
		s-1.961,4.678-2.906,6.945c-0.943,2.268-1.699,4.205-2.268,5.812c-1.133,3.118-1.818,5.669-2.055,7.653s-0.354,3.023-0.354,3.118
		c-0.096,0.567-0.355,1.063-0.781,1.488c-0.424,0.426-0.92,0.638-1.488,0.638c-0.66,0-1.203-0.212-1.629-0.638
		c-0.426-0.425-0.639-0.921-0.639-1.488c0-0.188,0.143-1.417,0.426-3.685c0.283-2.269,1.086-5.197,2.41-8.788
		c0.756-2.079,1.795-4.678,3.117-7.796c1.324-3.118,2.623-6.166,3.898-9.142c1.275-2.977,2.41-5.575,3.402-7.796
		s1.535-3.426,1.629-3.614c0.662-1.229,1.654-1.606,2.977-1.134L613.047,559.277z"/>
</g>
</svg>
