<?xml version="1.0" encoding="utf-8"?>
<!-- Generator: Adobe Illustrator 16.0.4, SVG Export Plug-In . SVG Version: 6.00 Build 0)  -->
<!DOCTYPE svg PUBLIC "-//W3C//DTD SVG 1.1//EN" "http://www.w3.org/Graphics/SVG/1.1/DTD/svg11.dtd">
<svg version="1.1" id="Layer_1" xmlns="http://www.w3.org/2000/svg" xmlns:xlink="http://www.w3.org/1999/xlink" x="0px" y="0px"
	 width="1000px" height="1000px" viewBox="0 0 1000 1000" enable-background="new 0 0 1000 1000" xml:space="preserve">
<path fill="none" stroke="#000000" stroke-miterlimit="10" d="M509,100"/>
<path fill="#3FA9F5" stroke="#000000" stroke-miterlimit="10" d="M509,900"/>
<path fill="#0FB9CB" d="M909,500"/>
<path fill="#0FB9CB" d="M109,500"/>
<g opacity="0.4">
	<path fill="#0FB9CB" d="M703,700c0-110.457-89.543-200-200-200s-200,89.543-200,200c110.457,0,200-89.543,200-200
		s-89.543-200-200-200c0,110.457,89.543,200,200,200s200-89.543,200-200c-110.457,0-200,89.543-200,200S592.543,700,703,700z"/>
</g>
<g opacity="0.4">
	<path fill="#0FB9CB" d="M747.949,641.422C719.361,534.729,609.693,471.412,503,500S332.99,638.256,361.579,744.949
		C468.271,716.361,531.589,606.693,503,500c-28.588-106.693-138.256-170.01-244.948-141.422C286.64,465.271,396.307,528.588,503,500
		s170.01-138.256,141.422-244.949C537.729,283.64,474.412,393.307,503,500C531.589,606.693,641.256,670.01,747.949,641.422z"/>
</g>
<g opacity="0.4">
	<path fill="#0FB9CB" d="M776.205,573.205C720.977,477.547,598.658,444.771,503,500s-128.434,177.547-73.205,273.205
		C525.453,717.977,558.229,595.658,503,500s-177.547-128.434-273.205-73.205C285.023,522.453,407.342,555.229,503,500
		s128.434-177.547,73.205-273.205C480.547,282.023,447.771,404.342,503,500S680.547,628.434,776.205,573.205z"/>
</g>
<g opacity="0.4">
	<path fill="#0FB9CB" d="M785.843,500.091C707.763,421.961,581.13,421.92,503,500s-78.171,204.714-0.09,282.843
		C581.039,704.763,581.08,578.13,503,500c-78.079-78.13-204.713-78.17-282.842-0.091C298.236,578.039,424.87,578.08,503,500
		s78.171-204.713,0.091-282.843C424.961,295.237,424.921,421.87,503,500C581.08,578.13,707.713,578.171,785.843,500.091z"/>
</g>
<g opacity="0.4">
	<path fill="#0FB9CB" d="M776.229,426.883C680.588,371.623,558.26,404.359,503,500c-55.259,95.641-22.523,217.971,73.119,273.229
		C631.377,677.588,598.642,555.26,503,500c-95.64-55.26-217.969-22.523-273.228,73.117C325.412,628.377,447.741,595.641,503,500
		c55.26-95.641,22.524-217.969-73.117-273.229C374.623,322.412,407.36,444.74,503,500
		C598.642,555.26,720.97,522.523,776.229,426.883z"/>
</g>
<g opacity="0.4">
	<path fill="#0FB9CB" d="M747.994,358.656C641.311,330.035,531.623,393.315,503,500c-28.623,106.684,34.66,216.373,141.344,244.994
		C672.965,638.311,609.686,528.623,503,500c-106.684-28.623-216.371,34.659-244.994,141.342
		C364.689,669.965,474.377,606.684,503,500c28.623-106.685-34.658-216.371-141.342-244.994C333.033,361.689,396.316,471.377,503,500
		C609.686,528.623,719.371,465.342,747.994,358.656z"/>
</g>
<text transform="matrix(1 0 0 1 350.3423 547.4531)" fill="#FFFFFF" font-family="'LinoLinoScriptTT'" font-size="141.7323">charis</text>
</svg>
