<?xml version="1.0" encoding="utf-8"?>
<!-- Generator: Adobe Illustrator 16.0.4, SVG Export Plug-In . SVG Version: 6.00 Build 0)  -->
<!DOCTYPE svg PUBLIC "-//W3C//DTD SVG 1.1//EN" "http://www.w3.org/Graphics/SVG/1.1/DTD/svg11.dtd">
<svg version="1.1" id="Layer_1" xmlns="http://www.w3.org/2000/svg" xmlns:xlink="http://www.w3.org/1999/xlink" x="0px" y="0px"
	 width="100px" height="100px" viewBox="0 0 100 100" enable-background="new 0 0 100 100" xml:space="preserve">
<path fill-rule="evenodd" clip-rule="evenodd" d="M68.94,8.743c1.052-0.24,1.354,0.844,1.935,1.466
	c0.018,0.051,0.034,0.102,0.051,0.154c0.084,0.256,0.165,0.516,0.235,0.785c0.017,0.065,0.033,0.13,0.049,0.196
	c0.048,0.109,0.048,0.291,0.085,0.406c0.013,0.069,0.023,0.139,0.034,0.21c0.011,0.071,0.021,0.144,0.028,0.216
	c0.098,1.089,0.315,1.838,0.527,2.702c0.017,0.066,0.033,0.134,0.05,0.203c0.625,2.02,1.096,4.053,1.103,6.165
	c0.001,0.079,0,0.157-0.001,0.236c-0.205,2.243-0.832,4.4-1.397,6.628c-0.02,0.077-0.04,0.154-0.059,0.231
	c-0.382,0.881-0.623,1.845-0.985,2.749c-0.422,0.984-0.66,2.041-0.885,3.084c-0.016,0.074-0.031,0.148-0.047,0.223
	c-0.333,1.271-0.272,2.656-0.694,3.861c-0.121,0.482-0.06,1.024-0.301,1.445c-0.121,0.241-0.062,0.603-0.085,0.918
	c-0.007,0.075-0.014,0.149-0.021,0.222c-0.195,1.39-0.074,2.775,0.227,4.101c0.903-0.482,1.867-0.844,2.899-1.162
	c0.072-0.016,0.146-0.03,0.22-0.044c1.466-0.277,2.971-0.26,4.4,0.272c0.143,0.062,0.28,0.129,0.415,0.203
	c0.805,0.443,1.475,1.111,1.889,2.03c0.018,0.039,0.042,0.073,0.068,0.106c0.105,0.129,0.25,0.223,0.147,0.441
	c0.113,0.142,0.189,0.318,0.16,0.602c0.289,0.348,0.117,1.001,0.272,1.408c0.022,0.059-0.373,1.398-0.271,1.734
	c0.02,0.068,0.044,0.134,0.072,0.197c0.028,0.061,0.058,0.118,0.09,0.175c0.032,0.058,0.064,0.112,0.101,0.167
	c0.379,0.736,1.282,1.158,1.223,1.941c0,0.421-0.784,0.301-1.199,0.356c-0.07-0.001-0.142-0.003-0.214-0.004
	c-0.716-0.021-1.465-0.108-2.146,0.099c-0.073,0.017-0.146,0.035-0.22,0.056c-0.801,0.219-1.545,0.655-2.181,1.377
	c-0.065,0.051-0.13,0.101-0.193,0.152c-0.512,0.411-1,0.854-1.478,1.256c-0.068-0.005-0.12,0.006-0.163,0.028
	c-0.126,0.063-0.165,0.216-0.318,0.254c-0.088,0.18-0.178,0.359-0.264,0.542c-0.029,0.061-0.058,0.122-0.086,0.184
	c-0.091,0.157-0.151,0.398-0.271,0.578c-0.482,1.084-0.241,2.41-1.326,3.313c-0.03,0.03-0.074,0.105-0.121,0.196
	c-1.1,1.606-2.422,3.061-3.929,4.304c-0.06,0.05-0.121,0.1-0.182,0.148c-0.707,0.592-1.55,1.073-2.334,1.616
	c-0.392,0.271-0.798,0.496-1.212,0.699c-0.06,0.029-0.119,0.058-0.18,0.087c-1.36,0.613-2.723,1.357-4.173,1.757
	c-0.078,0.021-0.155,0.041-0.234,0.06c-1.188,0.409-4.2,0.649-4.441,0.709c-0.059,0.031-0.15,0.062-0.233,0.083
	c-0.669,0.035-1.382,0.038-2.053,0.271c-0.062,0.021-0.123,0.043-0.183,0.068c-1.4,0.724-3.174,1.073-4.294,2.158
	c-0.054,0.052-0.105,0.105-0.155,0.16c-0.43,0.453-0.61,0.995-0.791,1.537c-0.06,0.121-0.241,0.181-0.241,0.302
	c-0.181,0.481-0.603,1.084-0.844,1.505c-0.119,0.182-0.24,0.354-0.354,0.526c-0.039,0.059-0.076,0.116-0.113,0.176
	c-1.279,2.49-1.641,5.262-1.582,8.033c-0.011,0.049-0.021,0.1-0.028,0.151c-0.051,0.311-0.059,0.665-0.172,0.992
	c-0.062,0.182-0.255,0.557-0.36,0.844c-0.044,0.116-0.085,0.285-0.121,0.361c-0.003,0.006-0.136,0.017-0.201,0.12
	c-0.039,0.062-0.002,0.192-0.04,0.241c-0.058,0.075-0.27,0.16-0.32,0.241c-0.146,0.229-0.277,0.472-0.723,0.32
	c-0.075-0.025-0.131-0.143-0.241-0.201c-0.185-0.095-0.473-0.174-0.603-0.28c-0.163-0.134-0.21-0.329-0.361-0.441
	c-0.107,0-0.214,0-0.321,0c-0.036,0.032-0.072,0.066-0.107,0.101c-0.035,0.033-0.07,0.068-0.105,0.102
	c-0.57,0.882-1.353-0.384-2.016-0.384c-0.181,0-0.301,0.241-0.241,0.422c-0.06,0-0.181,0-0.24,0
	c-0.121,0.362-0.422,0.663-0.784,0.603c-0.481,0-0.723-0.723-1.084-0.662c-0.066,0.018-0.126,0.045-0.181,0.079
	c-0.054,0.035-0.103,0.077-0.148,0.125c-0.515,0.819-1.177,2.266-2.382,1.783c-0.783-0.361-0.662-1.626-1.145-2.048
	c-0.252-0.211-0.624,0.258-0.927,0.701c-0.043,0.063-0.085,0.127-0.125,0.188c-0.393,0.678-0.935,1.279-1.598,1.701
	c-0.482,0.361-0.903-0.181-1.084-0.542c-0.105-0.195-0.185-0.403-0.241-0.617c-0.019-0.072-0.035-0.145-0.049-0.217
	c-0.072-0.612-0.132-1.214,0.049-1.816c-0.422-0.06-0.723,0.181-1.084,0.301c-0.411,0.182-0.848,0.421-1.296,0.645
	c-0.15,0.075-0.301,0.148-0.452,0.218c-1.022,0.584-2.408,0.704-3.252-0.26c-0.421-0.541,0.182-1.084,0-1.626
	c0.091-0.03,0.136-0.091,0.159-0.151c0.062-0.376,0.154-0.745,0.276-1.102c0.024-0.07,0.05-0.142,0.078-0.212
	c0.316-0.864,0.865-1.582,1.525-2.217c0.054-0.052,0.11-0.104,0.167-0.156c1.236-0.987,2.613-1.806,3.753-2.866
	c0.054-0.051,0.108-0.102,0.161-0.154c0.508-0.551,1.05-0.973,1.652-1.333l-0.061-0.061c0.521-0.321,0.991-0.724,1.477-1.074
	c0.121-0.087,0.244-0.172,0.369-0.252c0.875-0.723,1.669-1.479,2.598-2.039c0.062-0.036,0.124-0.073,0.188-0.109
	c1.151-0.501,1.874-1.465,2.898-2.188c0.542-0.361,1.024-0.542,1.505-0.843c0.061-0.036,0.119-0.073,0.176-0.11
	c0.058-0.039,0.114-0.078,0.168-0.119c0.781-0.731,1.485-1.524,2.194-2.308c0.048-0.052,0.095-0.104,0.143-0.156
	c0.874-0.861,1.597-1.945,2.44-2.849c0.135-0.12,0.27-0.26,0.396-0.415c0.043-0.052,0.085-0.105,0.124-0.161
	c0.321-0.509,0.743-1.352,0.383-1.592c-0.241-0.121-0.516-0.221-0.789-0.332c-0.138-0.056-0.273-0.113-0.406-0.177
	c-1.269-0.503-0.962-1.617-0.783-2.65c0.013-0.079,0.026-0.158,0.037-0.237c0.314-1.182-0.83-1.965-1.673-2.326
	c-0.482-0.241-0.964-0.542-1.415-0.982c-0.043-0.046-0.085-0.093-0.126-0.14c-0.083-0.093-0.165-0.188-0.246-0.283
	c-0.023-0.091-0.033-0.169-0.032-0.238c0-0.071,0.01-0.134,0.025-0.192c0.288-1.055,0.589-2.02,1.251-2.923
	c-1.145,0.061-2.288,1.386-3.323,0.504c-0.051-0.04-0.099-0.083-0.145-0.128c-0.16-0.158-0.294-0.343-0.424-0.53
	c-0.033-0.046-0.065-0.094-0.098-0.141c-0.069-0.096-0.121-0.193-0.157-0.294c-0.25-0.977,0.412-1.82,0.774-2.664
	c0.121-0.301,0.121-0.782-0.241-0.782c-0.662-0.061-1.446,0.481-1.867-0.302c-0.061-0.136-0.102-0.274-0.126-0.416
	c-0.012-0.07-0.02-0.141-0.024-0.213c-0.031-0.876,0.571-1.66,0.691-2.503c-0.783-0.061-1.505,0.241-2.289,0
	c-0.662-0.181-0.723-1.084-0.361-1.687c0.09-0.181,0.197-0.383,0.317-0.585c0.041-0.068,0.082-0.136,0.125-0.203
	c0.46-0.838,2.086-1.923,1.545-2.405c-0.226-0.201-0.483-0.391-0.742-0.593c-0.051-0.04-0.104-0.081-0.154-0.123
	c-0.971-0.549-1.393-1.814-0.609-2.838c0.3-0.421,0.24-1.325-0.182-1.506c-0.25-0.125-0.544-0.104-0.857-0.043
	c-0.063,0.013-0.127,0.026-0.191,0.041c-0.879,0.244-1.962,0.425-2.445-0.479c-0.181-0.241-0.181-0.662-0.241-0.903
	c-0.241-0.903,0.843-1.626,1.385-2.349c0.08-0.101,0.121-0.208,0.143-0.316c0.024-0.109,0.03-0.218,0.043-0.325
	c0.114-0.143-0.006-0.383,0.174-0.444c-0.181,0-0.361,0-0.546-0.021c-0.108-0.013-0.213-0.031-0.317-0.053
	c-0.206-0.044-0.401-0.103-0.583-0.159c-0.06-0.027-0.118-0.057-0.174-0.089c-0.338-0.198-0.6-0.512-0.729-1.002
	c-0.075-0.339-0.009-0.631,0.081-0.904c0.017-0.055,0.036-0.109,0.055-0.163c0.045-1.763-1.701-3.27-2.36-4.87
	c-0.045-0.056-0.093-0.111-0.141-0.165c-0.145-0.163-0.302-0.318-0.465-0.463c-0.663-0.542-1.205-1.264-1.573-2.035
	c-0.036-0.059-0.069-0.118-0.104-0.178c-0.104-0.179-0.208-0.364-0.311-0.558c-0.422-0.783-1.024-1.445-1.543-2.147
	c-0.047-0.057-0.096-0.113-0.148-0.171c-0.575-0.63-1.427-1.283-0.717-1.898c0.301-0.241,0.723,0.301,1.107,0.562
	c0.053,0.048,0.104,0.097,0.155,0.146c0.05,0.049,0.1,0.099,0.149,0.15c0.049,0.05,0.097,0.102,0.144,0.154
	c0.748,0.845,1.493,1.704,2.235,2.564c0.05,0.058,0.099,0.115,0.148,0.173c0.795,0.766,1.526,1.623,2.274,2.463
	c0.05,0.056,0.1,0.112,0.15,0.168c1.348,1.269,2.612,2.654,4.195,3.653c0.058,0.042,0.113,0.086,0.167,0.132
	c0.116,0.098,0.225,0.203,0.328,0.313c0.104,0.11,0.201,0.227,0.295,0.348c0.94,1.4,1.904,2.666,3.018,3.865
	c0.082,0.1,0.16,0.201,0.231,0.306c0.255,0.378,0.49,0.854,0.844,1.165c-0.031,0.217,0.124,0.25,0.121,0.441
	c0.041,0.062,0.083,0.123,0.125,0.183c0.042,0.061,0.085,0.121,0.129,0.181c0.855,1.246,2.051,2.127,3.18,3.088
	c0.061,0.05,0.119,0.102,0.179,0.153c0.644,0.572,1.245,1.114,1.788,1.776c0.782,1.145,1.565,2.168,2.566,3.04
	c0.046,0.053,0.09,0.106,0.133,0.161c0.181,0.227,0.347,0.469,0.489,0.734c0.028,0.053,0.057,0.107,0.083,0.162
	c0.522,0.903,1.185,1.686,1.908,2.529c0.723,0.964,1.626,1.748,2.225,2.766c0.036,0.064,0.072,0.127,0.109,0.189
	c0.376,0.779,0.678,1.744,1.279,2.226c0.362,0.241,0.422-0.481,0.603-0.844c0.241-0.422-0.422-0.541-0.542-0.843
	c-0.061-0.181-0.181-0.422,0.061-0.603c-0.121-0.12-0.301-0.24-0.301-0.423c-0.021-0.057-0.041-0.115-0.062-0.173
	c-0.041-0.115-0.082-0.229-0.14-0.327c0.021-0.212,0.07-0.396,0.14-0.56c0.023-0.054,0.049-0.107,0.075-0.156
	c0.166-0.289,0.407-0.529,0.648-0.771c-0.241-0.181-0.542-0.301-0.703-0.522c-0.016-0.054-0.03-0.108-0.045-0.162
	c-0.076-0.271-0.162-0.531-0.356-0.681c-0.037-0.279-0.095-0.576-0.021-0.892c0.015-0.063,0.035-0.128,0.062-0.192
	c0.341-0.081,0.522-0.2,0.763-0.382c0.531-0.289,1.33-0.616,1.476-1.014c0.017-0.05,0.025-0.1,0.021-0.152
	c-0.23-0.762-1.255-0.822-1.616-1.484c-0.843-1.325,1.325-1.565,2.108-2.048c-0.301-0.301-0.783-0.361-1.024-0.662
	c-0.361-0.362-0.602-0.784-0.843-1.206c-0.03-0.048-0.046-0.093-0.049-0.135c-0.003-0.043,0.005-0.083,0.024-0.122
	c0.385-0.466,1.169-0.526,1.229-1.007c0.181-0.723-0.541-1.206-0.844-1.868c-0.3-0.723,0.604-0.964,0.965-1.325
	c-0.302-0.182-0.603-0.301-0.844-0.603c-0.101-0.201-0.116-0.485,0.066-0.621c0.036-0.027,0.081-0.049,0.135-0.062
	c0.411-0.713,1.114-1.099,1.902-1.3c0.071-0.019,0.144-0.035,0.217-0.05c0.752-0.076,1.475-0.256,2.197-0.136
	c-0.783-0.723-2.349-1.325-1.866-2.53c0.24-0.481,1.023-0.481,1.565-0.481c-0.302-0.964-1.265-1.265-1.848-1.968
	c0.013-0.061,0.026-0.121,0.055-0.166c0.027-0.046,0.072-0.076,0.146-0.075c0-0.08,0-0.161,0-0.24
	c0.187-0.355,0.692-0.183,1.005-0.362c0.14-0.005,0.267,0.001,0.386,0.016c0.06,0.007,0.117,0.017,0.172,0.028
	c0.868,0.298,1.771,0.418,2.675,0.418c-0.06-0.06-0.06-0.181-0.06-0.181c0.24,0,0.481-0.18,0.723,0
	c-0.121-0.512-0.588-0.918-0.956-1.318c-0.054-0.057-0.104-0.113-0.151-0.171c-0.519-0.439-0.339-1.282,0.264-1.583
	c0.844-0.362,1.687,0.12,2.529,0.181c-0.4-1.431-1.127-2.698-1.764-4.031c-0.033-0.07-0.067-0.14-0.1-0.211
	c-0.244-0.457-0.425-1.119-0.124-1.48c0.181-0.301,0.723-0.662,1.205-0.301c0.663,0.602,1.385,1.084,2.045,1.631
	c0.055,0.048,0.109,0.096,0.164,0.145c0.596,0.537,1.142,1.13,1.887,1.295c-0.084-0.506-0.228-0.99-0.408-1.456
	c-0.026-0.066-0.052-0.133-0.08-0.199c-0.158-0.412-0.364-0.807-0.58-1.198c-0.036-0.065-0.072-0.13-0.108-0.195
	c-0.39-0.867-1.654-2.373-0.449-2.99c0.071-0.024,0.147-0.042,0.226-0.052c0.309-0.041,0.642,0.031,0.858,0.248
	c0.79,0.734,1.369,1.786,2.48,1.865c0.074,0.005,0.15,0.006,0.229,0.002c-0.055-0.773-0.464-1.445-0.672-2.201
	c-0.019-0.069-0.035-0.138-0.051-0.208c0.061,0,0.061,0,0.121,0c-0.362-0.783-0.121-1.687,0.782-1.626
	c0.663,0.061,1.084,0.663,1.506,1.145c0.362,0.301,0.844,0.061,1.024-0.361c0.241-0.542,0.241-1.084,0.061-1.626
	c0.181,0.12,0.301,0.06,0.442-0.038C68.951,8.857,68.958,8.812,68.94,8.743z"/>
</svg>
