<?xml version="1.0" encoding="utf-8"?>
<!-- Generator: Adobe Illustrator 16.0.4, SVG Export Plug-In . SVG Version: 6.00 Build 0)  -->
<!DOCTYPE svg PUBLIC "-//W3C//DTD SVG 1.1//EN" "http://www.w3.org/Graphics/SVG/1.1/DTD/svg11.dtd">
<svg version="1.1" id="Layer_1" xmlns="http://www.w3.org/2000/svg" xmlns:xlink="http://www.w3.org/1999/xlink" x="0px" y="0px"
	 width="100px" height="100px" viewBox="0 0 100 100" enable-background="new 0 0 100 100" xml:space="preserve">
<g>
	<path d="M31.435,238.743c-1.052-0.24-1.354,0.844-1.935,1.466c-0.018,0.051-0.034,0.102-0.051,0.154
		c-0.084,0.256-0.165,0.516-0.235,0.785c-0.017,0.064-0.033,0.129-0.049,0.195c-0.048,0.109-0.048,0.291-0.085,0.406
		c-0.013,0.068-0.023,0.139-0.034,0.21c-0.011,0.071-0.021,0.144-0.028,0.216c-0.098,1.09-0.315,1.838-0.527,2.702
		c-0.017,0.065-0.033,0.134-0.05,0.203c-0.625,2.021-1.096,4.053-1.103,6.165c-0.001,0.079,0,0.156,0.001,0.236
		c0.205,2.242,0.832,4.399,1.397,6.627c0.02,0.078,0.04,0.154,0.059,0.231c0.382,0.882,0.623,1.845,0.985,2.749
		c0.422,0.984,0.66,2.041,0.885,3.084c0.016,0.074,0.031,0.148,0.047,0.223c0.333,1.271,0.272,2.656,0.694,3.861
		c0.121,0.482,0.06,1.024,0.301,1.445c0.121,0.24,0.062,0.604,0.085,0.918c0.007,0.074,0.014,0.148,0.021,0.222
		c0.195,1.39,0.074,2.775-0.227,4.101c-0.903-0.481-1.867-0.844-2.899-1.161c-0.072-0.017-0.146-0.03-0.22-0.044
		c-1.466-0.277-2.971-0.26-4.4,0.271c-0.143,0.062-0.28,0.129-0.415,0.203c-0.805,0.443-1.475,1.111-1.889,2.03
		c-0.018,0.039-0.042,0.073-0.068,0.106c-0.105,0.129-0.25,0.223-0.147,0.44c-0.113,0.142-0.189,0.317-0.16,0.603
		c-0.289,0.348-0.117,1-0.272,1.407c-0.022,0.06,0.373,1.398,0.271,1.734c-0.02,0.067-0.044,0.134-0.072,0.196
		c-0.028,0.062-0.058,0.119-0.09,0.176c-0.032,0.058-0.064,0.111-0.101,0.167c-0.379,0.735-1.282,1.157-1.223,1.94
		c0,0.422,0.784,0.301,1.199,0.356c0.07-0.001,0.142-0.003,0.214-0.004c0.716-0.021,1.465-0.108,2.146,0.099
		c0.073,0.018,0.146,0.035,0.22,0.057c0.801,0.219,1.545,0.654,2.181,1.377c0.065,0.051,0.13,0.101,0.193,0.151
		c0.512,0.411,1,0.854,1.478,1.257c0.068-0.006,0.12,0.006,0.163,0.027c0.126,0.062,0.165,0.216,0.318,0.254
		c0.088,0.18,0.178,0.359,0.264,0.542c0.029,0.062,0.058,0.122,0.086,0.185c0.091,0.156,0.151,0.397,0.271,0.578
		c0.482,1.084,0.241,2.409,1.326,3.312c0.03,0.029,0.074,0.105,0.121,0.195c1.1,1.606,2.422,3.062,3.929,4.305
		c0.06,0.05,0.121,0.1,0.182,0.148c0.707,0.592,1.55,1.072,2.334,1.615c0.392,0.271,0.798,0.496,1.212,0.699
		c0.06,0.029,0.119,0.059,0.18,0.087c1.36,0.613,2.723,1.356,4.173,1.757c0.078,0.021,0.155,0.041,0.234,0.061
		c1.188,0.408,4.2,0.648,4.441,0.709c0.059,0.031,0.15,0.062,0.233,0.082c0.669,0.035,1.382,0.039,2.053,0.271
		c0.062,0.021,0.123,0.043,0.183,0.068c1.4,0.724,3.174,1.072,4.294,2.158c0.054,0.052,0.104,0.104,0.154,0.16
		c0.43,0.453,0.61,0.994,0.791,1.537c0.061,0.121,0.241,0.181,0.241,0.301c0.181,0.481,0.603,1.084,0.845,1.506
		c0.118,0.182,0.239,0.354,0.354,0.525c0.039,0.06,0.076,0.116,0.113,0.176c1.28,2.49,1.641,5.263,1.583,8.033
		c0.01,0.049,0.02,0.101,0.026,0.151c0.052,0.312,0.06,0.665,0.173,0.992c0.062,0.182,0.256,0.557,0.36,0.844
		c0.043,0.116,0.084,0.285,0.121,0.361c0.002,0.006,0.135,0.017,0.2,0.12c0.039,0.062,0.003,0.191,0.039,0.24
		c0.06,0.075,0.271,0.16,0.32,0.241c0.146,0.229,0.277,0.472,0.723,0.32c0.076-0.024,0.132-0.144,0.242-0.201
		c0.185-0.095,0.474-0.174,0.603-0.28c0.164-0.134,0.211-0.328,0.36-0.44c0.107,0,0.216,0,0.322,0
		c0.035,0.032,0.072,0.065,0.107,0.101c0.035,0.033,0.07,0.068,0.105,0.102c0.569,0.883,1.352-0.383,2.016-0.383
		c0.18,0,0.301,0.24,0.24,0.422c0.061,0,0.182,0,0.24,0c0.12,0.361,0.422,0.662,0.783,0.603c0.48,0,0.723-0.724,1.084-0.662
		c0.064,0.019,0.126,0.045,0.182,0.079c0.055,0.035,0.104,0.077,0.147,0.125c0.515,0.818,1.177,2.266,2.382,1.783
		c0.782-0.361,0.662-1.626,1.145-2.049c0.253-0.211,0.625,0.259,0.928,0.701c0.043,0.063,0.086,0.127,0.125,0.188
		c0.395,0.678,0.936,1.278,1.598,1.701c0.482,0.36,0.904-0.181,1.084-0.542c0.105-0.195,0.187-0.403,0.242-0.617
		c0.02-0.072,0.034-0.145,0.049-0.217c0.071-0.612,0.131-1.215-0.049-1.816c0.422-0.06,0.723,0.182,1.084,0.301
		c0.41,0.183,0.848,0.422,1.296,0.646c0.149,0.075,0.302,0.147,0.452,0.218c1.021,0.584,2.408,0.704,3.252-0.26
		c0.42-0.541-0.182-1.084,0-1.626c-0.092-0.03-0.137-0.091-0.158-0.151c-0.062-0.376-0.154-0.744-0.277-1.102
		c-0.022-0.07-0.049-0.143-0.077-0.213c-0.315-0.863-0.865-1.581-1.525-2.217c-0.054-0.052-0.108-0.104-0.166-0.155
		c-1.235-0.987-2.612-1.806-3.754-2.866c-0.054-0.051-0.106-0.102-0.159-0.154c-0.509-0.551-1.051-0.973-1.652-1.332l0.061-0.062
		c-0.521-0.321-0.99-0.724-1.477-1.074c-0.121-0.087-0.244-0.172-0.369-0.252c-0.875-0.724-1.669-1.479-2.598-2.039
		c-0.062-0.036-0.125-0.073-0.188-0.108c-1.151-0.502-1.875-1.465-2.897-2.188c-0.543-0.361-1.023-0.542-1.506-0.843
		c-0.062-0.036-0.119-0.073-0.177-0.11c-0.058-0.039-0.112-0.078-0.168-0.119c-0.78-0.731-1.483-1.524-2.192-2.308
		c-0.05-0.053-0.097-0.104-0.144-0.156c-0.875-0.861-1.599-1.945-2.44-2.85c-0.136-0.119-0.271-0.26-0.396-0.414
		c-0.043-0.053-0.084-0.105-0.123-0.161c-0.322-0.509-0.744-1.353-0.383-1.593c0.24-0.12,0.516-0.221,0.789-0.332
		c0.137-0.055,0.272-0.112,0.406-0.176c1.268-0.504,0.961-1.617,0.782-2.65c-0.014-0.079-0.026-0.158-0.036-0.237
		c-0.314-1.182,0.829-1.965,1.672-2.325c0.481-0.242,0.965-0.543,1.416-0.982c0.043-0.047,0.084-0.094,0.125-0.141
		c0.084-0.093,0.166-0.188,0.246-0.283c0.022-0.09,0.032-0.168,0.032-0.237c0-0.071-0.01-0.134-0.024-0.192
		c-0.289-1.055-0.59-2.02-1.252-2.923c1.145,0.062,2.289,1.386,3.322,0.504c0.051-0.04,0.1-0.083,0.145-0.128
		c0.16-0.158,0.295-0.343,0.425-0.529c0.032-0.047,0.065-0.095,0.099-0.142c0.068-0.096,0.12-0.192,0.156-0.294
		c0.25-0.977-0.412-1.82-0.773-2.664c-0.121-0.301-0.121-0.781,0.241-0.781c0.662-0.062,1.446,0.48,1.866-0.303
		c0.061-0.136,0.102-0.273,0.127-0.416c0.012-0.07,0.02-0.141,0.023-0.213c0.031-0.876-0.57-1.66-0.691-2.503
		c0.783-0.062,1.506,0.241,2.289,0c0.662-0.181,0.723-1.084,0.361-1.687c-0.09-0.182-0.197-0.384-0.318-0.586
		c-0.04-0.068-0.082-0.136-0.125-0.203c-0.461-0.838-2.086-1.922-1.545-2.404c0.227-0.201,0.482-0.391,0.742-0.594
		c0.051-0.039,0.104-0.08,0.154-0.123c0.971-0.549,1.393-1.813,0.608-2.838c-0.301-0.42-0.239-1.324,0.183-1.506
		c0.25-0.125,0.543-0.104,0.856-0.043c0.062,0.014,0.127,0.026,0.19,0.041c0.879,0.244,1.961,0.426,2.443-0.479
		c0.182-0.241,0.182-0.662,0.241-0.903c0.241-0.903-0.843-1.626-1.386-2.349c-0.08-0.102-0.12-0.208-0.143-0.316
		c-0.023-0.109-0.031-0.218-0.044-0.324c-0.114-0.144,0.007-0.384-0.175-0.445c0.182,0,0.359,0,0.546-0.021
		c0.108-0.013,0.214-0.03,0.317-0.053c0.205-0.044,0.4-0.103,0.582-0.159c0.06-0.027,0.117-0.057,0.175-0.089
		c0.338-0.198,0.601-0.513,0.729-1.002c0.074-0.339,0.01-0.631-0.08-0.904c-0.019-0.055-0.037-0.108-0.056-0.163
		c-0.046-1.763,1.701-3.27,2.359-4.869c0.046-0.057,0.094-0.111,0.142-0.166c0.146-0.162,0.303-0.317,0.465-0.463
		c0.663-0.541,1.204-1.264,1.573-2.035c0.035-0.059,0.069-0.117,0.104-0.178c0.104-0.179,0.207-0.363,0.311-0.558
		c0.422-0.783,1.023-1.445,1.544-2.147c0.047-0.057,0.097-0.113,0.147-0.171c0.576-0.63,1.428-1.282,0.719-1.897
		c-0.303-0.241-0.723,0.301-1.107,0.562c-0.053,0.048-0.104,0.097-0.154,0.146c-0.051,0.05-0.102,0.1-0.149,0.15
		c-0.049,0.051-0.097,0.102-0.144,0.154c-0.748,0.845-1.494,1.704-2.235,2.564c-0.049,0.058-0.099,0.114-0.147,0.172
		c-0.795,0.767-1.525,1.623-2.273,2.464c-0.051,0.056-0.1,0.112-0.15,0.168c-1.348,1.269-2.611,2.653-4.193,3.653
		c-0.059,0.041-0.112,0.086-0.168,0.131c-0.115,0.099-0.225,0.203-0.328,0.313c-0.103,0.11-0.2,0.228-0.295,0.349
		c-0.939,1.399-1.903,2.666-3.018,3.864c-0.082,0.101-0.16,0.201-0.23,0.306c-0.256,0.379-0.49,0.854-0.844,1.166
		c0.029,0.217-0.125,0.25-0.121,0.44c-0.041,0.062-0.082,0.123-0.125,0.183c-0.043,0.062-0.086,0.121-0.129,0.182
		c-0.855,1.246-2.053,2.127-3.182,3.088c-0.061,0.05-0.119,0.102-0.178,0.152c-0.645,0.572-1.246,1.115-1.789,1.777
		c-0.781,1.145-1.564,2.168-2.566,3.039c-0.046,0.053-0.09,0.106-0.133,0.161c-0.181,0.228-0.347,0.47-0.489,0.733
		c-0.027,0.054-0.057,0.107-0.082,0.162c-0.522,0.904-1.186,1.687-1.908,2.529c-0.724,0.965-1.627,1.748-2.226,2.766
		c-0.036,0.064-0.071,0.127-0.108,0.189c-0.377,0.779-0.679,1.744-1.279,2.227c-0.362,0.24-0.422-0.481-0.603-0.844
		c-0.241-0.423,0.422-0.541,0.542-0.844c0.061-0.181,0.181-0.422-0.061-0.604c0.121-0.119,0.301-0.239,0.301-0.422
		c0.021-0.058,0.041-0.115,0.062-0.174c0.041-0.115,0.082-0.229,0.14-0.326c-0.021-0.213-0.07-0.396-0.14-0.561
		c-0.023-0.054-0.049-0.107-0.075-0.156c-0.166-0.289-0.407-0.529-0.648-0.771c0.241-0.181,0.542-0.302,0.703-0.522
		c0.016-0.054,0.03-0.107,0.045-0.162c0.076-0.271,0.162-0.531,0.355-0.681c0.037-0.278,0.096-0.576,0.021-0.892
		c-0.015-0.063-0.035-0.129-0.062-0.192c-0.341-0.081-0.522-0.2-0.763-0.382c-0.531-0.289-1.33-0.616-1.476-1.014
		c-0.017-0.051-0.025-0.101-0.021-0.152c0.23-0.762,1.255-0.822,1.616-1.484c0.842-1.324-1.325-1.564-2.108-2.048
		c0.301-0.301,0.783-0.36,1.024-0.662c0.361-0.362,0.602-0.784,0.843-1.206c0.03-0.048,0.046-0.093,0.049-0.135
		c0.003-0.043-0.005-0.083-0.024-0.122c-0.385-0.466-1.169-0.526-1.229-1.007c-0.181-0.723,0.541-1.206,0.844-1.868
		c0.3-0.723-0.604-0.964-0.965-1.325c0.302-0.182,0.603-0.301,0.844-0.603c0.101-0.201,0.116-0.485-0.066-0.621
		c-0.036-0.026-0.081-0.049-0.135-0.062c-0.411-0.713-1.114-1.1-1.902-1.301c-0.071-0.019-0.144-0.035-0.217-0.05
		c-0.752-0.076-1.475-0.256-2.197-0.136c0.783-0.723,2.349-1.325,1.866-2.53c-0.24-0.481-1.023-0.481-1.565-0.481
		c0.302-0.963,1.265-1.265,1.848-1.967c-0.013-0.062-0.026-0.121-0.055-0.166c-0.027-0.047-0.072-0.076-0.146-0.076
		c0-0.08,0-0.16,0-0.239c-0.187-0.355-0.692-0.183-1.005-0.362c-0.14-0.005-0.267,0.001-0.386,0.016
		c-0.06,0.008-0.117,0.018-0.172,0.028c-0.868,0.298-1.771,0.418-2.675,0.418c0.06-0.06,0.06-0.181,0.06-0.181
		c-0.24,0-0.481-0.18-0.723,0c0.121-0.512,0.588-0.918,0.956-1.318c0.054-0.057,0.104-0.113,0.151-0.171
		c0.519-0.438,0.339-1.282-0.264-1.583c-0.844-0.361-1.687,0.12-2.529,0.182c0.4-1.432,1.127-2.699,1.764-4.031
		c0.033-0.07,0.067-0.141,0.1-0.211c0.244-0.457,0.425-1.119,0.124-1.48c-0.181-0.301-0.723-0.662-1.205-0.301
		c-0.663,0.602-1.385,1.084-2.045,1.631c-0.055,0.048-0.109,0.096-0.164,0.145c-0.596,0.537-1.142,1.131-1.887,1.295
		c0.084-0.506,0.228-0.989,0.408-1.455c0.026-0.066,0.052-0.133,0.08-0.199c0.158-0.412,0.364-0.807,0.58-1.198
		c0.036-0.065,0.072-0.13,0.108-0.194c0.39-0.867,1.654-2.373,0.449-2.99c-0.071-0.024-0.147-0.043-0.226-0.053
		c-0.309-0.041-0.642,0.031-0.858,0.248c-0.79,0.734-1.369,1.786-2.48,1.865c-0.074,0.006-0.15,0.006-0.229,0.002
		c0.055-0.773,0.464-1.445,0.672-2.201c0.019-0.068,0.035-0.138,0.051-0.207c-0.061,0-0.061,0-0.121,0
		c0.362-0.783,0.121-1.688-0.782-1.627c-0.663,0.062-1.084,0.664-1.506,1.146c-0.362,0.301-0.844,0.062-1.024-0.361
		c-0.241-0.542-0.241-1.084-0.061-1.626c-0.181,0.12-0.301,0.061-0.442-0.038C31.424,238.857,31.418,238.812,31.435,238.743z"/>
</g>
</svg>
